<?xml version="1.0" standalone="no"?>
<!DOCTYPE svg PUBLIC "-//W3C//DTD SVG 1.1//EN" "http://www.w3.org/Graphics/SVG/1.1/DTD/svg11.dtd" >
<svg xmlns="http://www.w3.org/2000/svg">
<metadata></metadata>
<defs>
<font id="engravers_gothic_fsbold" horiz-adv-x="500" >
<font-face units-per-em="1000" ascent="800" descent="-200" />
<missing-glyph horiz-adv-x="333" />
<glyph horiz-adv-x="0" />
<glyph horiz-adv-x="333" />
<glyph unicode=" "  horiz-adv-x="333" />
<glyph unicode="&#x09;" horiz-adv-x="333" />
<glyph unicode="&#xa0;" horiz-adv-x="333" />
<glyph unicode="!" horiz-adv-x="333" d="M118 133l-8 417h114l-8 -417h-98zM106 47q0 26 18 43.5t43 17.5t42.5 -17t17.5 -44q0 -28 -17.5 -44.5t-42.5 -16.5t-43 16.5t-18 44.5z" />
<glyph unicode="&#x22;" horiz-adv-x="278" d="M161 437v263h90v-263h-90zM28 437v263h89v-263h-89z" />
<glyph unicode="#" horiz-adv-x="769" d="M106 0l83 226h-161l34 89h159l34 92h-170l29 89h174l84 228h104l-82 -228h87l84 228h104l-83 -228h154l-32 -89h-155l-34 -92h166l-32 -89h-166l-83 -226h-106l85 226h-89l-84 -226h-104zM327 315h88l33 92h-88z" />
<glyph unicode="$" horiz-adv-x="667" d="M60 84l60 84q90 -69 165 -84v152q-97 9 -146.5 47t-49.5 100q0 61 53 105t143 51v78h97v-85q105 -21 199 -89l-57 -81q-78 57 -142 73v-108q105 -6 162 -51.5t57 -116.5q0 -70 -59.5 -121.5t-159.5 -56.5v-112h-97v116q-113 16 -225 99zM285 333v108q-42 -4 -65.5 -18.5 t-23.5 -37.5q0 -41 89 -52zM382 77q53 6 82.5 28t29.5 55q0 31 -29 50t-83 22v-155z" />
<glyph unicode="%" horiz-adv-x="843" d="M179 202q-74 0 -124 47t-50 119q0 73 49.5 120.5t124.5 47.5t124 -47.5t49 -120.5q0 -72 -49.5 -119t-123.5 -47zM216 -1l295 525h115l-295 -525h-115zM179 295q30 0 50.5 21.5t20.5 52.5q0 32 -20 53t-51 21q-30 0 -50 -20.5t-20 -53.5q0 -32 20 -53t50 -21zM490 152 q0 72 49 119t124 47t124.5 -47t49.5 -119t-49.5 -119t-124.5 -47q-74 0 -123.5 47t-49.5 119zM593 152q0 -32 20 -53t50 -21t50.5 21.5t20.5 52.5q0 32 -20 53.5t-51 21.5q-30 0 -50 -21.5t-20 -53.5z" />
<glyph unicode="&#x26;" horiz-adv-x="618" d="M528 3l-53 57q-99 -75 -207 -75q-101 0 -161 50.5t-60 134.5q0 122 151 200l-159 180h407l62 -93h-247l223 -251q21 21 53 61l68 -83q-29 -39 -51 -58l112 -123h-138zM409 134l-144 162q-107 -47 -107 -123q0 -41 30 -66t79 -25q71 0 142 52z" />
<glyph unicode="'" horiz-adv-x="144" d="M28 437v263h89v-263h-89z" />
<glyph unicode="(" horiz-adv-x="273" d="M192 -14q-83 70 -119 138t-36 150q0 83 36 150t119 138l58 -64q-59 -47 -83.5 -99.5t-24.5 -124.5q0 -71 24.5 -124t83.5 -100z" />
<glyph unicode=")" horiz-adv-x="273" d="M24 49q58 48 82.5 101t24.5 124q0 72 -24.5 124.5t-82.5 99.5l58 64q82 -71 118 -138t36 -150q0 -82 -36 -150t-118 -138z" />
<glyph unicode="*" d="M186 260l-77 47l72 79l-106 24l32 78l100 -33v95h87l-2 -95l102 31l30 -77l-105 -25l73 -76l-79 -50l-64 82z" />
<glyph unicode="+" horiz-adv-x="833" d="M104 262v83h269v263h88v-263h268v-83h-268v-262h-88v262h-269z" />
<glyph unicode="," horiz-adv-x="333" d="M140 -104l-45 34q58 54 61 57q-21 2 -36 16t-15 36q0 24 18 39.5t44 15.5q27 0 46.5 -18.5t19.5 -51.5q0 -50 -93 -128z" />
<glyph unicode="-" horiz-adv-x="257" d="M3 234v72h251v-72h-251z" />
<glyph unicode="." horiz-adv-x="333" d="M106 31q0 20 18 33t43 13t42.5 -13t17.5 -33t-17.5 -32.5t-42.5 -12.5t-43 12.5t-18 32.5z" />
<glyph unicode="/" horiz-adv-x="278" d="M-49 -95l273 657h103l-273 -657h-103z" />
<glyph unicode="0" horiz-adv-x="667" d="M17 260q0 118 88.5 197t227.5 79t228 -79t89 -197t-89 -196t-228 -78t-227.5 78t-88.5 196zM126 260q0 -75 58.5 -126.5t148.5 -51.5q91 0 149 51.5t58 126.5q0 76 -57.5 127t-149.5 51t-149.5 -51t-57.5 -127z" />
<glyph unicode="1" horiz-adv-x="438" d="M167 0v523h108v-523h-108z" />
<glyph unicode="2" horiz-adv-x="667" d="M98 0q-1 21 -1.5 41.5t-1 27.5t-0.5 10q0 82 35 128.5t129 78.5q34 11 74.5 23t62 18t42.5 14.5t29 18t8 22.5q0 25 -29.5 40.5t-77.5 15.5q-88 0 -212 -82l-63 79q140 101 269 101q101 0 162 -45.5t61 -109.5q0 -23 -6 -41t-23 -33.5t-31 -25.5t-46.5 -23t-52.5 -19.5 t-66 -21.5q-99 -32 -122 -48q-35 -23 -35 -67v-6h392v-96h-497z" />
<glyph unicode="3" horiz-adv-x="667" d="M30 117l67 78q70 -62 126 -87.5t124 -25.5q78 0 126.5 26t48.5 62t-37.5 52t-113.5 16h-43v98q33 -3 54 -3q52 0 76.5 10t24.5 37t-29.5 42.5t-81.5 15.5q-100 0 -213 -78l-63 83q132 93 279 93q101 0 159 -43.5t58 -112.5q0 -52 -33 -86q73 -43 73 -122 q0 -75 -77.5 -130.5t-203.5 -55.5q-95 0 -171 30t-150 101z" />
<glyph unicode="4" horiz-adv-x="667" d="M36 117v88l422 318h95v-308h86v-98h-86v-117h-107v117h-410zM216 215h230v172z" />
<glyph unicode="5" horiz-adv-x="667" d="M56 90l53 86q75 -50 129 -71.5t107 -21.5q65 0 107 31.5t42 78.5q0 40 -42.5 65.5t-113.5 25.5q-84 0 -171 -50h-67v289h455v-97h-348v-64q71 19 131 19q121 0 193.5 -56t72.5 -140q0 -81 -73 -140t-189 -59q-142 0 -286 104z" />
<glyph unicode="6" horiz-adv-x="667" d="M617 435l-64 -72q-101 75 -196 75q-70 0 -120.5 -26.5t-71.5 -73.5q100 41 200 41q122 0 198.5 -55.5t76.5 -140.5q0 -86 -72 -141.5t-194 -55.5q-149 0 -242.5 81t-93.5 197q0 119 87.5 195.5t228.5 76.5q72 0 133.5 -23.5t129.5 -77.5zM155 224q14 -60 75.5 -100.5 t143.5 -40.5q67 0 111.5 29t44.5 70q0 43 -47 71.5t-116 28.5q-102 0 -212 -58z" />
<glyph unicode="7" horiz-adv-x="667" d="M147 0l315 426h-378v97h578l-389 -523h-126z" />
<glyph unicode="8" horiz-adv-x="667" d="M56 169q0 83 77 129q-41 36 -41 88q0 66 63.5 108t177.5 42t177.5 -42t63.5 -108q0 -52 -41 -88q76 -45 76 -128q0 -82 -73 -133t-203 -51t-203.5 50.5t-73.5 132.5zM203 387q0 -48 130 -48q131 0 131 50q0 24 -34.5 37.5t-96.5 13.5q-130 0 -130 -53zM166 169 q0 -40 44.5 -63t122.5 -23t122 23t44 63q0 43 -39.5 58t-126.5 15t-127 -15t-40 -58z" />
<glyph unicode="9" horiz-adv-x="667" d="M51 86l65 72q97 -75 194 -75q69 0 119.5 26t72.5 73q-98 -40 -200 -40q-122 0 -199 56t-77 140q0 86 72.5 142t194.5 56q149 0 242.5 -81t93.5 -198q0 -119 -87.5 -195t-228.5 -76q-73 0 -134.5 23t-127.5 77zM136 338q0 -43 47.5 -71.5t116.5 -28.5q103 0 211 60 q-13 59 -75 99.5t-144 40.5q-68 0 -112 -29.5t-44 -70.5z" />
<glyph unicode=":" horiz-adv-x="333" d="M167 244q-25 0 -43 16.5t-18 42.5q0 27 18 43t43 16t42.5 -16t17.5 -43q0 -26 -17.5 -42.5t-42.5 -16.5zM106 45q0 26 18 42.5t43 16.5t42.5 -16.5t17.5 -42.5q0 -27 -17.5 -43t-42.5 -16t-43 16t-18 43z" />
<glyph unicode=";" horiz-adv-x="333" d="M167 243q-25 0 -43 17t-18 43q0 27 18 43t43 16t42.5 -16t17.5 -43q0 -26 -17.5 -43t-42.5 -17zM140 -104l-45 34q58 54 61 57q-21 2 -36 16t-15 36q0 24 18 39.5t44 15.5q27 0 46.5 -18.5t19.5 -51.5q0 -50 -93 -128z" />
<glyph unicode="&#x3c;" horiz-adv-x="833" d="M109 274v60l615 231v-87l-468 -174l468 -173v-87z" />
<glyph unicode="=" horiz-adv-x="833" d="M104 345v76h625v-76h-625zM104 187v76h625v-76h-625z" />
<glyph unicode="&#x3e;" horiz-adv-x="833" d="M109 44v87l468 173l-468 174v87l615 -231v-60z" />
<glyph unicode="?" horiz-adv-x="361" d="M105 124v101q0 23 7.5 42.5t15.5 29t24 24.5l83 79q12 11 12 28t-16 28t-42 11q-68 0 -84 -79l-101 37q37 137 186 137q77 0 121 -38t44 -102q0 -48 -44 -90l-85 -80q-14 -14 -14 -43v-85h-107zM99 47q0 26 18 43.5t43 17.5t43 -17.5t18 -43.5q0 -28 -18 -44.5t-43 -16.5 t-43 16.5t-18 44.5z" />
<glyph unicode="@" horiz-adv-x="1000" d="M815 37l41 -59q-166 -119 -347 -119q-192 0 -316 92q-156 116 -156 317q0 207 172 346q137 110 335 110q173 0 284 -83q135 -101 135 -257q0 -177 -127 -274q-74 -57 -163 -57q-86 0 -108 54q-53 -54 -129 -54q-85 0 -129 44.5t-44 130.5q0 119 72.5 199.5t174.5 80.5 q82 0 123 -55l18 36h83l-74 -290q-7 -28 -7 -40q0 -25 32 -25q43 0 90 36q44 33 68.5 90t24.5 127q0 111 -90.5 183.5t-234.5 72.5q-163 0 -271 -90q-138 -115 -138 -296q0 -153 112 -241q100 -79 253 -79q164 0 316 100zM572 241l28 112q-8 36 -30 56.5t-54 20.5 q-68 0 -110.5 -59t-42.5 -147q0 -44 21 -68.5t60 -24.5q45 0 80 30t48 80z" />
<glyph unicode="A" horiz-adv-x="588" d="M-32 0l283 550h82l286 -550h-118l-73 138h-272l-71 -138h-117zM206 235h173l-87 166z" />
<glyph unicode="B" horiz-adv-x="653" d="M61 0v550h339q181 0 181 -146q0 -57 -36 -93q74 -51 74 -139q0 -78 -54 -125t-148 -47h-356zM168 348h238q67 0 67 52q0 54 -67 54h-238v-106zM168 96h262q38 0 58.5 21t20.5 56t-21 56.5t-58 21.5h-262v-155z" />
<glyph unicode="C" horiz-adv-x="604" d="M505 210l86 -60q-92 -164 -274 -164q-129 0 -214 81t-85 206q0 126 85 207.5t214 81.5q164 0 264 -142l-91 -63q-59 108 -173 108q-82 0 -136 -54.5t-54 -137.5q0 -82 54 -136t136 -54q115 0 188 127z" />
<glyph unicode="D" horiz-adv-x="632" d="M61 0v550h251q138 0 220.5 -78t82.5 -199t-81 -197t-222 -76h-251zM168 96h144q92 0 143 49t51 129t-52.5 130t-141.5 50h-144v-358z" />
<glyph unicode="E" horiz-adv-x="546" d="M61 0v550h464v-96h-357v-114h216v-96h-216v-148h379v-96h-486z" />
<glyph unicode="F" horiz-adv-x="495" d="M61 0v550h464v-96h-357v-114h216v-96h-216v-244h-107z" />
<glyph unicode="G" horiz-adv-x="618" d="M581 310v-177q-88 -147 -264 -147q-129 0 -214 81t-85 206q0 126 85 207.5t214 81.5q164 0 264 -142l-91 -63q-59 108 -173 108q-82 0 -136 -54.5t-54 -137.5q0 -82 54 -136t136 -54q99 0 157 80v51h-147v96h254z" />
<glyph unicode="H" horiz-adv-x="616" d="M61 0v550h108v-202h278v202h107v-550h-107v251h-278v-251h-108z" />
<glyph unicode="I" horiz-adv-x="231" d="M62 0v550h108v-550h-108z" />
<glyph unicode="J" horiz-adv-x="537" d="M-1 157v101h107v-99q0 -43 34 -59.5t109 -16.5t101 24.5t26 91.5v351h107v-369q0 -104 -57 -149.5t-189 -45.5q-238 0 -238 171z" />
<glyph unicode="K" horiz-adv-x="586" d="M61 0v550h107v-234l282 234h147l-243 -204l263 -346h-130l-212 278l-107 -86v-192h-107z" />
<glyph unicode="L" d="M61 0v550h107v-454h352v-96h-459z" />
<glyph unicode="M" horiz-adv-x="715" d="M58 0v550h93l207 -298l208 298h92v-550h-106v356l-194 -274l-194 274v-356h-106z" />
<glyph unicode="N" horiz-adv-x="613" d="M61 0v550h64l321 -351v351h107v-550h-63l-322 351v-351h-107z" />
<glyph unicode="O" horiz-adv-x="634" d="M18 273q0 126 85 207.5t214 81.5t214.5 -81.5t85.5 -207.5q0 -125 -85.5 -206t-214.5 -81t-214 81t-85 206zM127 273q0 -82 54 -136t136 -54t136 54t54 136q0 83 -54 137.5t-136 54.5t-136 -54.5t-54 -137.5z" />
<glyph unicode="P" horiz-adv-x="586" d="M58 0v550h329q89 0 139 -42.5t50 -115.5q0 -74 -48 -120.5t-132 -46.5h-231v-225h-107zM165 322h218q83 0 83 65q0 32 -21 49.5t-59 17.5h-221v-132z" />
<glyph unicode="Q" horiz-adv-x="634" d="M341 -17h-30q-124 0 -208.5 81.5t-84.5 206.5q0 127 85 209t214 82q130 0 215 -82t85 -209q0 -88 -44.5 -156.5t-124.5 -105.5l41 -81h-120zM259 147h119l24 -48q50 23 77.5 68.5t27.5 103.5q0 83 -54 138t-136 55t-136 -54.5t-54 -138.5q0 -76 45.5 -128.5t118.5 -60.5z " />
<glyph unicode="R" horiz-adv-x="597" d="M58 0v550h329q89 0 139 -43t50 -118q0 -56 -31.5 -98.5t-86.5 -58.5l139 -232h-119l-135 225h-178v-225h-107zM165 322h218q83 0 83 65q0 32 -21 49.5t-59 17.5h-221v-132z" />
<glyph unicode="S" horiz-adv-x="597" d="M4 93l61 86q128 -97 245 -97q66 0 107 25t41 64q0 30 -28 49.5t-80 23.5q-9 1 -51.5 3.5t-55 4t-41 5.5t-46.5 9t-35 13q-88 40 -88 122q0 68 62.5 114.5t166.5 46.5q143 0 286 -98l-62 -85q-114 86 -223 86q-53 0 -86.5 -17t-33.5 -44q0 -16 18 -31q20 -15 49 -20 t81 -7.5t82 -5.5q92 -10 144 -57t52 -114q0 -77 -69 -130t-189 -53q-168 0 -307 107z" />
<glyph unicode="T" horiz-adv-x="417" d="M155 0v454h-227v96h561v-96h-227v-454h-107z" />
<glyph unicode="U" horiz-adv-x="579" d="M47 181v369h107v-351q0 -70 27 -93t108 -23t108 23t27 93v351h107v-369q0 -103 -56 -149t-186 -46t-186 46t-56 149z" />
<glyph unicode="V" horiz-adv-x="549" d="M240 0l-279 550h118l195 -386l195 386h119l-280 -550h-68z" />
<glyph unicode="W" horiz-adv-x="720" d="M155 0l-188 550h108l119 -354l123 354h88l123 -352l119 352h106l-187 -550h-79l-127 370l-126 -370h-79z" />
<glyph unicode="X" horiz-adv-x="549" d="M-27 0l235 276l-232 274h133l167 -194l166 194h133l-233 -272l239 -278h-138l-169 199l-171 -199h-130z" />
<glyph unicode="Y" horiz-adv-x="454" d="M173 0v268l-267 282h137l184 -193l183 193h138l-268 -282v-268h-107z" />
<glyph unicode="Z" horiz-adv-x="509" d="M-42 0l364 454h-313v96h514l-356 -454h335v-96h-544z" />
<glyph unicode="[" horiz-adv-x="273" d="M36 0v550h196v-92h-94v-366h94v-92h-196z" />
<glyph unicode="\" horiz-adv-x="278" d="M224 -95l-273 657h103l273 -657h-103z" />
<glyph unicode="]" horiz-adv-x="273" d="M41 0v92h94v366h-94v92h197v-550h-197z" />
<glyph unicode="^" horiz-adv-x="1000" d="M159 449l298 277h86l297 -277h-125l-215 190l-216 -190h-125z" />
<glyph unicode="_" d="M0 -176h500v-65h-500v65z" />
<glyph unicode="`" d="M256 492l-161 174h125l126 -174h-90z" />
<glyph unicode="a" horiz-adv-x="449" d="M-41 0l231 425h66l235 -425h-116l-53 99h-195l-54 -99h-114zM175 186h98l-49 90z" />
<glyph unicode="b" horiz-adv-x="544" d="M52 0v425h276q149 0 149 -114q0 -42 -27 -71q57 -40 57 -105q0 -61 -43.5 -98t-122.5 -37h-289zM157 277h170q43 0 43 28t-44 28h-169v-56zM157 92h191q25 0 38.5 12.5t13.5 34.5q0 21 -13.5 33t-38.5 12h-191v-92z" />
<glyph unicode="c" horiz-adv-x="551" d="M456 173l84 -55q-91 -131 -253 -131q-119 0 -195.5 63.5t-76.5 160.5t76.5 161.5t195.5 64.5q153 0 242 -114l-84 -55q-60 75 -158 75q-72 0 -118.5 -37.5t-46.5 -93.5t47 -93.5t118 -37.5q52 0 92 21t77 71z" />
<glyph unicode="d" horiz-adv-x="516" d="M52 0v425h205q113 0 180 -60t67 -154q0 -93 -65.5 -152t-181.5 -59h-205zM157 92h101q66 0 102.5 33t36.5 87q0 53 -38 87t-101 34h-101v-241z" />
<glyph unicode="e" horiz-adv-x="502" d="M51 0v425h431v-93h-326v-61h214v-92h-214v-87h344v-92h-449z" />
<glyph unicode="f" horiz-adv-x="470" d="M51 0v425h425v-93h-320v-61h207v-92h-207v-179h-105z" />
<glyph unicode="g" horiz-adv-x="574" d="M546 243v-142q-84 -114 -249 -114q-126 0 -204 64t-78 160t78.5 161t203.5 65q155 0 250 -114l-83 -55q-62 75 -167 75q-78 0 -126.5 -37.5t-48.5 -93.5t48.5 -93.5t126.5 -37.5q47 0 86 14.5t57 36.5v18h-106v93h212z" />
<glyph unicode="h" horiz-adv-x="565" d="M51 0v425h105v-151h253v151h105v-425h-105v181h-253v-181h-105z" />
<glyph unicode="i" horiz-adv-x="211" d="M52 0v425h106v-425h-106z" />
<glyph unicode="j" horiz-adv-x="447" d="M4 134v68h105v-59q0 -34 24 -48.5t75 -14.5q52 0 70 20.5t18 74.5v250h105v-269q0 -91 -46.5 -130t-154.5 -39q-196 0 -196 147z" />
<glyph unicode="k" horiz-adv-x="475" d="M52 0v425h105v-151l194 151h147l-202 -159l214 -266h-123l-167 208l-63 -51v-157h-105z" />
<glyph unicode="l" horiz-adv-x="449" d="M51 0v425h105v-333h310v-92h-415z" />
<glyph unicode="m" horiz-adv-x="593" d="M51 0v425h84l161 -215l161 215h84v-425h-105v238l-139 -190l-141 190v-238h-105z" />
<glyph unicode="n" horiz-adv-x="507" d="M52 0v425h63l236 -244v244h104v-425h-63l-236 243v-243h-104z" />
<glyph unicode="o" horiz-adv-x="581" d="M15 212q0 97 76 161t199 64q124 0 200 -64t76 -161q0 -96 -76.5 -160.5t-199.5 -64.5q-122 0 -198.5 65t-76.5 160zM122 212q0 -57 46.5 -94t121.5 -37q76 0 122.5 37t46.5 94q0 56 -47 93.5t-122 37.5t-121.5 -37t-46.5 -94z" />
<glyph unicode="p" horiz-adv-x="532" d="M52 0v425h323q74 0 115 -33.5t41 -92.5q0 -55 -40.5 -92t-108.5 -37h-225v-170h-105zM157 263h218q49 0 49 35q0 34 -46 34h-221v-69z" />
<glyph unicode="q" horiz-adv-x="581" d="M382 -58l-40 45q-39 -3 -52 -3q-122 0 -198.5 65t-76.5 161q0 98 76 162.5t199 64.5t199.5 -64.5t76.5 -162.5q0 -62 -32.5 -110.5t-88.5 -79.5l69 -78h-132zM350 127l29 -33q80 40 80 116q0 57 -47 95t-122 38t-121.5 -37.5t-46.5 -95.5q0 -51 37.5 -87.5t99.5 -43.5 l-41 48h132z" />
<glyph unicode="r" horiz-adv-x="542" d="M52 0v425h307q73 0 114.5 -33.5t41.5 -92.5q0 -42 -24.5 -74.5t-66.5 -46.5l120 -178h-118l-118 171h-151v-171h-105zM157 264h202q49 0 49 35q0 34 -49 34h-202v-69z" />
<glyph unicode="s" horiz-adv-x="495" d="M9 61l52 84q102 -65 197 -65q47 0 75.5 16t28.5 42t-26.5 36.5t-83.5 11.5q-115 2 -167 28t-52 93q0 57 51.5 93.5t140.5 36.5q114 0 229 -69l-53 -82q-95 58 -177 58q-85 0 -85 -37q0 -19 19.5 -24.5t68.5 -5.5h22q221 0 221 -144q0 -61 -55.5 -103.5t-149.5 -42.5 q-134 0 -256 74z" />
<glyph unicode="t" horiz-adv-x="405" d="M150 0v335h-176v90h457v-90h-176v-335h-105z" />
<glyph unicode="u" horiz-adv-x="556" d="M52 141v284h105v-269q0 -47 24.5 -61.5t96.5 -14.5t96.5 14.5t24.5 61.5v269h105v-284q0 -81 -53.5 -117.5t-173.5 -36.5q-121 0 -173 36.5t-52 117.5z" />
<glyph unicode="v" horiz-adv-x="472" d="M206 0l-228 425h114l144 -267l141 267h117l-228 -425h-60z" />
<glyph unicode="w" horiz-adv-x="613" d="M136 0l-155 425h106l88 -245l91 245h82l91 -245l88 245h106l-154 -425h-75l-97 260l-97 -260h-74z" />
<glyph unicode="x" horiz-adv-x="451" d="M-32 0l191 213l-189 212h130l125 -139l125 139h131l-190 -210l192 -215h-130l-128 142l-129 -142h-128z" />
<glyph unicode="y" horiz-adv-x="447" d="M171 0v209l-215 216h138l129 -129l127 129h142l-217 -216v-209h-104z" />
<glyph unicode="z" horiz-adv-x="437" d="M-23 0l270 332h-226v93h426l-272 -333h250v-92h-448z" />
<glyph unicode="{" d="M210 -10v116q0 62 -23 88.5t-80 26.5q-1 0 -13 -0.5t-29 -0.5v90q17 0 29 -0.5t13 -0.5q57 0 80 26t23 88v116q0 115 36 155.5t148 40.5h43v-89h-38q-55 0 -72 -21.5t-17 -80.5v-115q0 -67 -14 -105t-51 -60q37 -21 51 -59t14 -105v-116q0 -59 16 -80.5t69 -21.5 q1 0 13 0.5t29 0.5v-89h-43q-112 0 -148 40.5t-36 155.5z" />
<glyph unicode="|" d="M204 -241v1020h93v-1020h-93z" />
<glyph unicode="}" d="M64 -117h39q54 0 71 21t17 80v116q0 67 14 105t51 59q-37 22 -51 60t-14 105v115q0 60 -16 81.5t-69 21.5q-1 0 -13 -0.5t-29 -0.5v89h43q112 0 148 -40.5t36 -155.5v-116q0 -62 23 -88t80 -26q1 0 13 0.5t29 0.5v-90q-17 0 -29 0.5t-13 0.5q-57 0 -80 -26.5t-23 -88.5 v-116q0 -115 -36 -155.5t-148 -40.5h-43v89z" />
<glyph unicode="~" horiz-adv-x="833" d="M67 235v67q117 52 209 52q56 0 148 -22q90 -22 134 -22q72 0 209 63v-67q-110 -52 -209 -52q-49 0 -148 22q-90 22 -134 22q-72 0 -209 -63z" />
<glyph unicode="&#xa1;" horiz-adv-x="333" d="M167 440q-25 0 -43 17.5t-18 43.5q0 28 18 44.5t43 16.5t42.5 -16.5t17.5 -44.5q0 -27 -17.5 -44t-42.5 -17zM110 -2l8 417h98l8 -417h-114z" />
<glyph unicode="&#xa2;" horiz-adv-x="667" d="M304 -131v161q-88 17 -141.5 80t-53.5 149q0 88 53 150t142 78v130h98v-131q98 -15 168 -111l-86 -59q-38 57 -82 70v-254q49 19 90 87l86 -57q-64 -111 -176 -131v-162h-98zM304 133v254q-40 -14 -64 -48.5t-24 -79.5q0 -46 23.5 -79t64.5 -47z" />
<glyph unicode="&#xa3;" horiz-adv-x="667" d="M95 0l6 96h56l-10 116h-78v98h68l-2 19q-2 22 -2 28q0 82 58.5 130.5t159.5 48.5q127 0 270 -101l-63 -79q-124 82 -205 82q-52 0 -83 -24t-31 -64q0 -5 2 -31l1 -9h169v-98h-159l10 -116h353v-96h-520z" />
<glyph unicode="&#xa4;" horiz-adv-x="606" d="M76 176l-59 55l101 95q-38 55 -38 114q0 60 38 115l-101 94l59 56l102 -95q55 35 125 35q72 0 126 -35l103 95l59 -56l-102 -94q37 -54 37 -115q0 -60 -37 -114l102 -94l-59 -56l-103 94q-56 -34 -126 -34q-67 0 -125 34zM304 312q57 0 97 38.5t40 90.5t-40 89.5 t-97 37.5t-98 -37.5t-41 -89.5q0 -53 41 -91t98 -38z" />
<glyph unicode="&#xa5;" horiz-adv-x="630" d="M37 214v79h195l-16 17h-179v79h103l-138 145h135l178 -187l177 187h137l-140 -145h104v-79h-178l-17 -17h195v-79h-226v-214h-105v214h-225z" />
<glyph unicode="&#xa6;" d="M204 314v399h93v-399h-93zM204 -174v399h93v-399h-93z" />
<glyph unicode="&#xa7;" d="M95 48v20h104v-20q0 -45 53 -45q20 0 32 8.5t12 23.5q0 13 -11 25t-22 18.5t-41 22.5l-68 36q-86 46 -86 118q0 61 57 106q-24 29 -24 70q0 57 40.5 94t104.5 37q70 0 110 -35.5t40 -97.5v-22h-103q-3 63 -47 63q-18 0 -28.5 -8t-10.5 -22t10.5 -23.5t35.5 -22.5l93 -48 q85 -45 85 -122q0 -69 -57 -108q27 -30 27 -72q0 -57 -44 -96t-112 -39q-67 0 -108.5 38t-41.5 101zM232 218l72 -40q18 16 18 36q0 4 -0.5 8t-2.5 7.5t-3.5 6.5t-5.5 6t-6.5 5t-8 5.5t-8.5 5t-10.5 5.5t-10.5 6l-70 39q-21 -16 -21 -33q0 -13 9 -23.5t16.5 -15.5t31.5 -18z " />
<glyph unicode="&#xa8;" d="M328 526q-26 0 -44.5 13t-18.5 32t18.5 32t44.5 13t45 -13t19 -32t-19 -32t-45 -13zM172 526q-26 0 -45 13t-19 32t19 32t45 13t44.5 -13t18.5 -32t-18.5 -32t-44.5 -13z" />
<glyph unicode="&#xa9;" horiz-adv-x="833" d="M150 103q-111 106 -111 257q0 150 113 260q105 105 264 105q157 0 269 -107q109 -104 109 -258q0 -153 -109 -256q-115 -109 -269 -109q-153 0 -266 108zM206 157q87 -85 210 -85q125 0 214 86q85 80 85 202q0 121 -86 205q-87 84 -213 84q-127 0 -209 -82 q-89 -86 -89 -207q0 -118 88 -203zM513 299h95q-7 -80 -60 -125.5t-133 -45.5q-94 0 -150 61.5t-56 172.5q0 106 58.5 168t152.5 62q76 0 125.5 -42t57.5 -118h-96q-17 80 -89 80q-51 0 -78.5 -40.5t-27.5 -112.5q0 -70 28 -109t78 -39q77 0 95 88z" />
<glyph unicode="&#xaa;" horiz-adv-x="296" d="M-40 208l161 255h52l164 -255h-93l-35 56h-122l-35 -56h-92zM129 328h38l-19 30z" />
<glyph unicode="&#xab;" horiz-adv-x="405" d="M203 163v96l198 124v-100l-111 -71l111 -73v-97zM3 163v96l198 124v-100l-111 -71l111 -73v-97z" />
<glyph unicode="&#xac;" horiz-adv-x="833" d="M104 349v78h625v-250h-87v172h-538z" />
<glyph unicode="&#xad;" horiz-adv-x="257" d="M3 244v60h251v-60h-251z" />
<glyph unicode="&#xae;" horiz-adv-x="833" d="M150 103q-111 106 -111 257q0 150 113 260q105 105 264 105t269 -107q109 -107 109 -258q0 -153 -109 -256q-115 -109 -269 -109q-155 0 -266 108zM622 151l8 7q85 80 85 201q0 123 -85 206q-87 84 -214 84q-126 0 -208 -82q-90 -87 -90 -207q0 -118 88 -203 q87 -85 210 -85q118 0 203 76h-111l-87 175h-63v-175h-102v436h171q190 0 190 -129q0 -42 -23.5 -73.5t-64.5 -44.5zM358 401h57q53 0 75.5 9.5t22.5 40.5t-23.5 42.5t-74.5 11.5h-57v-104z" />
<glyph unicode="&#xaf;" d="M105 544v62h290v-62h-290z" />
<glyph unicode="&#xb0;" horiz-adv-x="329" d="M164 446q-65 0 -110 40t-45 98t45.5 98.5t110.5 40.5q64 0 109.5 -40.5t45.5 -98.5q0 -57 -45.5 -97.5t-110.5 -40.5zM165 512q34 0 57.5 21t23.5 51q0 31 -23.5 52.5t-57.5 21.5t-58 -21.5t-24 -52.5q0 -30 24 -51t58 -21z" />
<glyph unicode="&#xb1;" horiz-adv-x="833" d="M104 338v83h269v161h88v-161h268v-83h-268v-162h-88v162h-269zM104 26v82h625v-82h-625z" />
<glyph unicode="&#xb2;" horiz-adv-x="440" d="M57 208q0 17 -0.5 29t-0.5 17v6q0 50 24 78t90 48q29 8 70.5 16.5t54 14.5t12.5 17q0 26 -64 26q-56 0 -140 -49l-53 54q102 64 189 64q70 0 112 -28t42 -67q0 -38 -36 -58.5t-117 -43.5q-7 -2 -19 -5q-31 -8 -44.5 -12.5t-24 -14t-11.5 -23.5h259v-69h-343z" />
<glyph unicode="&#xb3;" horiz-adv-x="440" d="M11 280l52 56q48 -37 84.5 -51.5t81.5 -14.5q50 0 79.5 11.5t29.5 30.5t-22.5 25.5t-70.5 6.5h-35v73q30 -4 42 -4q33 0 46.5 3.5t13.5 17.5q0 25 -66 25q-63 0 -141 -46l-52 56q93 60 195 60q70 0 110 -26.5t40 -68.5q0 -28 -18 -49q44 -24 44 -72q0 -45 -53 -79 t-139 -34q-64 0 -116 18.5t-105 61.5z" />
<glyph unicode="&#xb4;" d="M154 492l126 174h125l-161 -174h-90z" />
<glyph unicode="&#xb5;" horiz-adv-x="556" d="M157 0v-200h-105v625h105v-269q0 -47 24.5 -61.5t96.5 -14.5t96.5 14.5t24.5 61.5v269h105v-284q0 -81 -53.5 -117.5t-173.5 -36.5q-70 0 -120 13z" />
<glyph unicode="&#xb6;" d="M205 0v371q-86 9 -135 58t-49 124q0 81 57.5 132t154.5 51h246v-70h-62v-666h-80v666h-52v-666h-80z" />
<glyph unicode="&#xb7;" horiz-adv-x="333" d="M166 223q-25 0 -43 13t-18 30q0 19 17.5 31t43.5 12t44.5 -12.5t18.5 -30.5q0 -17 -18.5 -30t-44.5 -13z" />
<glyph unicode="&#xb8;" d="M113 -128q100 -20 135 -20q44 0 44 21q0 28 -50 28q-13 0 -43 -4v115h71v-47q56 -1 86 -25t30 -65q0 -43 -32.5 -67t-97.5 -24q-53 0 -143 21v67z" />
<glyph unicode="&#xb9;" horiz-adv-x="440" d="M177 208v315h85v-315h-85z" />
<glyph unicode="&#xba;" horiz-adv-x="383" d="M191 200q-84 0 -136 39t-52 97q0 57 52 95.5t136 38.5q85 0 137 -38.5t52 -95.5q0 -58 -52 -97t-137 -39zM191 268q47 0 76 19t29 49q0 29 -29 48.5t-76 19.5q-46 0 -75 -19t-29 -49t29 -49t75 -19z" />
<glyph unicode="&#xbb;" horiz-adv-x="405" d="M205 42v97l111 73l-111 71v100l197 -124v-96zM4 42v97l111 73l-111 71v100l198 -124v-96z" />
<glyph unicode="&#xbc;" horiz-adv-x="1007" d="M220 -14l464 548h102l-463 -548h-103zM168 213v310h83v-310h-83zM602 65v63l273 182h68v-173h54v-72h-54v-65h-82v65h-259zM749 137h112v75z" />
<glyph unicode="&#xbd;" horiz-adv-x="1007" d="M220 -14l464 548h102l-463 -548h-103zM168 210v313h83v-313h-83zM969 -1h-327q-1 15 -1.5 28.5t-1 18t-0.5 6.5q0 49 23.5 76.5t86.5 46.5q21 6 44.5 12t37 8.5t26 6t17.5 8t5 11.5q0 24 -60 24q-55 0 -134 -48l-51 56q96 63 181 63q67 0 107.5 -28.5t40.5 -67.5 q0 -37 -34 -56.5t-113 -42.5q-7 -2 -18.5 -5t-16.5 -4.5t-14 -4t-13 -4.5t-10.5 -4.5t-9 -5.5t-6 -6.5t-5 -7.5t-1.5 -9h247v-71z" />
<glyph unicode="&#xbe;" horiz-adv-x="1007" d="M241 -14l464 548h102l-463 -548h-103zM8 287l52 52q47 -36 82 -50t77 -14q46 0 74 11.5t28 29.5t-20.5 24t-66.5 6h-35v70h42q31 0 43.5 2.5t12.5 14.5q0 26 -63 26q-58 0 -134 -46l-52 58q91 57 188 57q68 0 106 -26.5t38 -68.5q0 -26 -16 -45q42 -26 42 -71 q0 -44 -51 -78.5t-134 -34.5q-116 0 -213 83zM602 65v63l273 182h68v-173h54v-72h-54v-65h-82v65h-259zM749 137h112v75z" />
<glyph unicode="&#xbf;" horiz-adv-x="361" d="M201 440q-25 0 -43 17.5t-18 43.5q0 28 18 44.5t43 16.5t43 -16.5t18 -44.5q0 -26 -18 -43.5t-43 -17.5zM257 160l101 -36q-20 -72 -65.5 -105t-120.5 -33q-77 0 -121.5 38t-44.5 101q0 50 44 91l85 80q14 14 14 43v85h107v-102q0 -23 -7.5 -42t-15.5 -28.5t-24 -24.5 l-83 -79q-12 -11 -12 -28q0 -18 16 -28.5t42 -10.5q68 0 85 79z" />
<glyph unicode="&#xc0;" horiz-adv-x="588" d="M300 615l-161 174h125l126 -174h-90zM-32 0l283 550h82l286 -550h-118l-73 138h-272l-71 -138h-117zM206 235h173l-87 166z" />
<glyph unicode="&#xc1;" horiz-adv-x="588" d="M198 615l126 174h125l-161 -174h-90zM-32 0l283 550h82l286 -550h-118l-73 138h-272l-71 -138h-117zM206 235h173l-87 166z" />
<glyph unicode="&#xc2;" horiz-adv-x="588" d="M125 615l121 174h96l121 -174h-89l-80 95l-80 -95h-89zM-32 0l283 550h82l286 -550h-118l-73 138h-272l-71 -138h-117zM206 235h173l-87 166z" />
<glyph unicode="&#xc3;" horiz-adv-x="588" d="M128 644q30 94 120 94q17 0 32 -3l47 -11q16 -4 21 -4q17 0 35 26h78q-36 -94 -119 -94q-16 0 -39 5l-46 11q-3 0 -9 1t-11 1q-15 0 -33 -26h-76zM-32 0l283 550h82l286 -550h-118l-73 138h-272l-71 -138h-117zM206 235h173l-87 166z" />
<glyph unicode="&#xc4;" horiz-adv-x="588" d="M372 649q-26 0 -44.5 13t-18.5 32t18.5 32t44.5 13t45 -13t19 -32t-19 -32t-45 -13zM216 649q-26 0 -45 13t-19 32t19 32t45 13t44.5 -13t18.5 -32t-18.5 -32t-44.5 -13zM-32 0l283 550h82l286 -550h-118l-73 138h-272l-71 -138h-117zM206 235h173l-87 166z" />
<glyph unicode="&#xc5;" horiz-adv-x="588" d="M294 574q-57 0 -97 35.5t-40 85.5t39.5 84.5t97.5 34.5q57 0 97.5 -35t40.5 -84q0 -50 -40.5 -85.5t-97.5 -35.5zM294 647q22 0 37.5 13.5t15.5 33.5t-15.5 33.5t-37.5 13.5q-23 0 -38 -13.5t-15 -33.5t15 -33.5t38 -13.5zM-32 0l283 550h82l286 -550h-118l-73 138h-272 l-71 -138h-117zM206 235h173l-87 166z" />
<glyph unicode="&#xc6;" horiz-adv-x="859" d="M57 0h-116l336 550h581v-96h-357v-114h217v-96h-217v-148h380v-96h-487v138h-252zM200 235h194v219h-60z" />
<glyph unicode="&#xc7;" horiz-adv-x="604" d="M178 -140q100 -20 135 -20q44 0 44 21q0 28 -50 28q-13 0 -43 -4v105q-110 17 -178 94t-68 189q0 126 85 207.5t214 81.5q164 0 264 -142l-91 -63q-59 108 -173 108q-82 0 -136 -54.5t-54 -137.5q0 -82 54 -136t136 -54q115 0 188 127l86 -60q-86 -155 -256 -163v-34 q56 -1 86 -25t30 -65q0 -43 -32.5 -67t-97.5 -24q-53 0 -143 21v67z" />
<glyph unicode="&#xc8;" horiz-adv-x="546" d="M307 615l-161 174h125l126 -174h-90zM61 0v550h464v-96h-357v-114h216v-96h-216v-148h379v-96h-486z" />
<glyph unicode="&#xc9;" horiz-adv-x="546" d="M205 615l126 174h125l-161 -174h-90zM61 0v550h464v-96h-357v-114h216v-96h-216v-148h379v-96h-486z" />
<glyph unicode="&#xca;" horiz-adv-x="546" d="M132 615l121 174h96l121 -174h-89l-80 95l-80 -95h-89zM61 0v550h464v-96h-357v-114h216v-96h-216v-148h379v-96h-486z" />
<glyph unicode="&#xcb;" horiz-adv-x="546" d="M379 649q-26 0 -44.5 13t-18.5 32t18.5 32t44.5 13t45 -13t19 -32t-19 -32t-45 -13zM223 649q-26 0 -45 13t-19 32t19 32t45 13t44.5 -13t18.5 -32t-18.5 -32t-44.5 -13zM61 0v550h464v-96h-357v-114h216v-96h-216v-148h379v-96h-486z" />
<glyph unicode="&#xcc;" horiz-adv-x="231" d="M122 615l-161 174h125l126 -174h-90zM62 0v550h108v-550h-108z" />
<glyph unicode="&#xcd;" horiz-adv-x="231" d="M20 615l126 174h125l-161 -174h-90zM62 0v550h108v-550h-108z" />
<glyph unicode="&#xce;" horiz-adv-x="231" d="M35 615h-89l121 174h96l121 -174h-89l-80 95zM62 0v550h108v-550h-108z" />
<glyph unicode="&#xcf;" horiz-adv-x="231" d="M194 649q-26 0 -44.5 13t-18.5 32t18.5 32t44.5 13t45 -13t19 -32t-19 -32t-45 -13zM38 649q-26 0 -45 13t-19 32t19 32t45 13t44.5 -13t18.5 -32t-18.5 -32t-44.5 -13zM62 0v550h108v-550h-108z" />
<glyph unicode="&#xd0;" horiz-adv-x="669" d="M97 0v254h-116v90h116v206h251q138 0 220.5 -78t82.5 -199t-81 -197t-222 -76h-251zM204 96h144q92 0 143 49t51 129t-52.5 130t-141.5 50h-144v-110h189v-90h-189v-158z" />
<glyph unicode="&#xd1;" horiz-adv-x="613" d="M141 644q30 94 120 94q17 0 32 -3l47 -11q16 -4 21 -4q17 0 35 26h78q-36 -94 -119 -94q-16 0 -39 5l-46 11q-3 0 -9 1t-11 1q-15 0 -33 -26h-76zM61 0v550h64l321 -351v351h107v-550h-63l-322 351v-351h-107z" />
<glyph unicode="&#xd2;" horiz-adv-x="634" d="M323 615l-161 174h125l126 -174h-90zM18 273q0 126 85 207.5t214 81.5t214.5 -81.5t85.5 -207.5q0 -125 -85.5 -206t-214.5 -81t-214 81t-85 206zM127 273q0 -82 54 -136t136 -54t136 54t54 136q0 83 -54 137.5t-136 54.5t-136 -54.5t-54 -137.5z" />
<glyph unicode="&#xd3;" horiz-adv-x="634" d="M221 615l126 174h125l-161 -174h-90zM18 273q0 126 85 207.5t214 81.5t214.5 -81.5t85.5 -207.5q0 -125 -85.5 -206t-214.5 -81t-214 81t-85 206zM127 273q0 -82 54 -136t136 -54t136 54t54 136q0 83 -54 137.5t-136 54.5t-136 -54.5t-54 -137.5z" />
<glyph unicode="&#xd4;" horiz-adv-x="634" d="M148 615l121 174h96l121 -174h-89l-80 95l-80 -95h-89zM18 273q0 126 85 207.5t214 81.5t214.5 -81.5t85.5 -207.5q0 -125 -85.5 -206t-214.5 -81t-214 81t-85 206zM127 273q0 -82 54 -136t136 -54t136 54t54 136q0 83 -54 137.5t-136 54.5t-136 -54.5t-54 -137.5z" />
<glyph unicode="&#xd5;" horiz-adv-x="634" d="M151 644q30 94 120 94q17 0 32 -3l47 -11q16 -4 21 -4q17 0 35 26h78q-36 -94 -119 -94q-16 0 -39 5l-46 11q-3 0 -9 1t-11 1q-15 0 -33 -26h-76zM18 273q0 126 85 207.5t214 81.5t214.5 -81.5t85.5 -207.5q0 -125 -85.5 -206t-214.5 -81t-214 81t-85 206zM127 273 q0 -82 54 -136t136 -54t136 54t54 136q0 83 -54 137.5t-136 54.5t-136 -54.5t-54 -137.5z" />
<glyph unicode="&#xd6;" horiz-adv-x="634" d="M395 649q-26 0 -44.5 13t-18.5 32t18.5 32t44.5 13t45 -13t19 -32t-19 -32t-45 -13zM239 649q-26 0 -45 13t-19 32t19 32t45 13t44.5 -13t18.5 -32t-18.5 -32t-44.5 -13zM18 273q0 126 85 207.5t214 81.5t214.5 -81.5t85.5 -207.5q0 -125 -85.5 -206t-214.5 -81t-214 81 t-85 206zM127 273q0 -82 54 -136t136 -54t136 54t54 136q0 83 -54 137.5t-136 54.5t-136 -54.5t-54 -137.5z" />
<glyph unicode="&#xd7;" horiz-adv-x="833" d="M122 86l234 218l-234 218l62 56l234 -217l235 216l62 -55l-235 -218l235 -218l-62 -56l-235 216l-235 -216z" />
<glyph unicode="&#xd8;" horiz-adv-x="634" d="M30 -29l71 98q-83 80 -83 204q0 126 85 208t214 82q70 0 132 -28l30 41h126l-72 -97q84 -81 84 -206t-85 -206.5t-215 -81.5q-69 0 -132 27l-30 -41h-125zM167 154l223 298q-31 13 -73 13q-82 0 -136 -54t-54 -138q0 -66 40 -119zM245 94q33 -11 72 -11q83 0 136.5 53.5 t53.5 136.5q0 69 -38 120z" />
<glyph unicode="&#xd9;" horiz-adv-x="579" d="M296 615l-161 174h125l126 -174h-90zM47 181v369h107v-351q0 -70 27 -93t108 -23t108 23t27 93v351h107v-369q0 -103 -56 -149t-186 -46t-186 46t-56 149z" />
<glyph unicode="&#xda;" horiz-adv-x="579" d="M194 615l126 174h125l-161 -174h-90zM47 181v369h107v-351q0 -70 27 -93t108 -23t108 23t27 93v351h107v-369q0 -103 -56 -149t-186 -46t-186 46t-56 149z" />
<glyph unicode="&#xdb;" horiz-adv-x="579" d="M121 615l121 174h96l121 -174h-89l-80 95l-80 -95h-89zM47 181v369h107v-351q0 -70 27 -93t108 -23t108 23t27 93v351h107v-369q0 -103 -56 -149t-186 -46t-186 46t-56 149z" />
<glyph unicode="&#xdc;" horiz-adv-x="579" d="M368 649q-26 0 -44.5 13t-18.5 32t18.5 32t44.5 13t45 -13t19 -32t-19 -32t-45 -13zM212 649q-26 0 -45 13t-19 32t19 32t45 13t44.5 -13t18.5 -32t-18.5 -32t-44.5 -13zM47 181v369h107v-351q0 -70 27 -93t108 -23t108 23t27 93v351h107v-369q0 -103 -56 -149t-186 -46 t-186 46t-56 149z" />
<glyph unicode="&#xdd;" horiz-adv-x="454" d="M131 615l126 174h125l-161 -174h-90zM173 0v268l-267 282h137l184 -193l183 193h138l-268 -282v-268h-107z" />
<glyph unicode="&#xde;" horiz-adv-x="586" d="M58 0v550h107v-100h222q89 0 139 -42.5t50 -118.5q0 -71 -48 -117.5t-132 -46.5h-231v-125h-107zM165 221h218q83 0 83 66q0 32 -21 49t-59 17h-221v-132z" />
<glyph unicode="&#xdf;" horiz-adv-x="990" d="M504 61l52 84q102 -65 197 -65q47 0 75.5 16t28.5 42t-26.5 36.5t-83.5 11.5q-115 2 -167 28t-52 93q0 57 51.5 93.5t140.5 36.5q114 0 229 -69l-53 -82q-95 58 -177 58q-85 0 -85 -37q0 -19 19.5 -24.5t68.5 -5.5h22q221 0 221 -144q0 -61 -55.5 -103.5t-149.5 -42.5 q-134 0 -256 74zM9 61l52 84q102 -65 197 -65q47 0 75.5 16t28.5 42t-26.5 36.5t-83.5 11.5q-115 2 -167 28t-52 93q0 57 51.5 93.5t140.5 36.5q114 0 229 -69l-53 -82q-95 58 -177 58q-85 0 -85 -37q0 -19 19.5 -24.5t68.5 -5.5h22q221 0 221 -144q0 -61 -55.5 -103.5 t-149.5 -42.5q-134 0 -256 74z" />
<glyph unicode="&#xe0;" horiz-adv-x="449" d="M231 492l-161 174h125l126 -174h-90zM-41 0l231 425h66l235 -425h-116l-53 99h-195l-54 -99h-114zM175 186h98l-49 90z" />
<glyph unicode="&#xe1;" horiz-adv-x="449" d="M129 492l126 174h125l-161 -174h-90zM-41 0l231 425h66l235 -425h-116l-53 99h-195l-54 -99h-114zM175 186h98l-49 90z" />
<glyph unicode="&#xe2;" horiz-adv-x="449" d="M56 492l121 174h96l121 -174h-89l-80 95l-80 -95h-89zM-41 0l231 425h66l235 -425h-116l-53 99h-195l-54 -99h-114zM175 186h98l-49 90z" />
<glyph unicode="&#xe3;" horiz-adv-x="449" d="M59 521q30 94 120 94q17 0 32 -3l47 -11q16 -4 21 -4q17 0 35 26h78q-36 -94 -119 -94q-16 0 -39 5l-46 11q-3 0 -9 1t-11 1q-15 0 -33 -26h-76zM-41 0l231 425h66l235 -425h-116l-53 99h-195l-54 -99h-114zM175 186h98l-49 90z" />
<glyph unicode="&#xe4;" horiz-adv-x="449" d="M303 526q-26 0 -44.5 13t-18.5 32t18.5 32t44.5 13t45 -13t19 -32t-19 -32t-45 -13zM147 526q-26 0 -45 13t-19 32t19 32t45 13t44.5 -13t18.5 -32t-18.5 -32t-44.5 -13zM-41 0l231 425h66l235 -425h-116l-53 99h-195l-54 -99h-114zM175 186h98l-49 90z" />
<glyph unicode="&#xe5;" horiz-adv-x="449" d="M223 446q-49 0 -82.5 30t-33.5 73q0 42 33.5 71.5t82.5 29.5t83.5 -29.5t34.5 -71.5q0 -43 -34.5 -73t-83.5 -30zM223 508q19 0 32.5 11.5t13.5 28.5t-13.5 28.5t-32.5 11.5t-32 -11.5t-13 -28.5t13 -28.5t32 -11.5zM-41 0l231 425h66l235 -425h-116l-53 99h-195l-54 -99 h-114zM175 186h98l-49 90z" />
<glyph unicode="&#xe6;" horiz-adv-x="810" d="M-42 0l263 425h571v-93h-328v-61h213v-92h-213v-87h344v-92h-449v99h-225l-61 -99h-115zM191 186h168v146h-79z" />
<glyph unicode="&#xe7;" horiz-adv-x="551" d="M139 -140q100 -20 135 -20q44 0 44 21q0 28 -50 28q-13 0 -43 -4v108q-95 16 -152.5 75.5t-57.5 142.5q0 97 76.5 161.5t195.5 64.5q153 0 242 -114l-84 -55q-60 75 -158 75q-72 0 -118.5 -37.5t-46.5 -93.5t47 -93.5t118 -37.5q52 0 92 21t77 71l84 -55 q-89 -126 -244 -131v-34q56 -1 86 -25t30 -65q0 -43 -32.5 -67t-97.5 -24q-53 0 -143 21v67z" />
<glyph unicode="&#xe8;" horiz-adv-x="502" d="M276 492l-161 174h125l126 -174h-90zM51 0v425h431v-93h-326v-61h214v-92h-214v-87h344v-92h-449z" />
<glyph unicode="&#xe9;" horiz-adv-x="502" d="M174 492l126 174h125l-161 -174h-90zM51 0v425h431v-93h-326v-61h214v-92h-214v-87h344v-92h-449z" />
<glyph unicode="&#xea;" horiz-adv-x="502" d="M101 492l121 174h96l121 -174h-89l-80 95l-80 -95h-89zM51 0v425h431v-93h-326v-61h214v-92h-214v-87h344v-92h-449z" />
<glyph unicode="&#xeb;" horiz-adv-x="502" d="M348 526q-26 0 -44.5 13t-18.5 32t18.5 32t44.5 13t45 -13t19 -32t-19 -32t-45 -13zM192 526q-26 0 -45 13t-19 32t19 32t45 13t44.5 -13t18.5 -32t-18.5 -32t-44.5 -13zM51 0v425h431v-93h-326v-61h214v-92h-214v-87h344v-92h-449z" />
<glyph unicode="&#xec;" horiz-adv-x="211" d="M112 492l-161 174h125l126 -174h-90zM52 0v425h106v-425h-106z" />
<glyph unicode="&#xed;" horiz-adv-x="211" d="M10 492l126 174h125l-161 -174h-90zM52 0v425h106v-425h-106z" />
<glyph unicode="&#xee;" horiz-adv-x="211" d="M25 492h-89l121 174h96l121 -174h-89l-80 95zM52 0v425h106v-425h-106z" />
<glyph unicode="&#xef;" horiz-adv-x="211" d="M184 526q-26 0 -44.5 13t-18.5 32t18.5 32t44.5 13t45 -13t19 -32t-19 -32t-45 -13zM28 526q-26 0 -45 13t-19 32t19 32t45 13t44.5 -13t18.5 -32t-18.5 -32t-44.5 -13zM52 0v425h106v-425h-106z" />
<glyph unicode="&#xf0;" horiz-adv-x="516" d="M52 0v180h-67v86h67v159h205q113 0 180 -60t67 -154q0 -93 -65.5 -152t-181.5 -59h-205zM157 92h101q66 0 102.5 33t36.5 87q0 53 -38 87t-101 34h-101v-67h147v-86h-147v-88z" />
<glyph unicode="&#xf1;" horiz-adv-x="507" d="M88 521q30 94 120 94q17 0 32 -3l47 -11q16 -4 21 -4q17 0 35 26h78q-36 -94 -119 -94q-16 0 -39 5l-46 11q-3 0 -9 1t-11 1q-15 0 -33 -26h-76zM52 0v425h63l236 -244v244h104v-425h-63l-236 243v-243h-104z" />
<glyph unicode="&#xf2;" horiz-adv-x="581" d="M297 492l-161 174h125l126 -174h-90zM15 212q0 97 76 161t199 64q124 0 200 -64t76 -161q0 -96 -76.5 -160.5t-199.5 -64.5q-122 0 -198.5 65t-76.5 160zM122 212q0 -57 46.5 -94t121.5 -37q76 0 122.5 37t46.5 94q0 56 -47 93.5t-122 37.5t-121.5 -37t-46.5 -94z" />
<glyph unicode="&#xf3;" horiz-adv-x="581" d="M195 492l126 174h125l-161 -174h-90zM15 212q0 97 76 161t199 64q124 0 200 -64t76 -161q0 -96 -76.5 -160.5t-199.5 -64.5q-122 0 -198.5 65t-76.5 160zM122 212q0 -57 46.5 -94t121.5 -37q76 0 122.5 37t46.5 94q0 56 -47 93.5t-122 37.5t-121.5 -37t-46.5 -94z" />
<glyph unicode="&#xf4;" horiz-adv-x="581" d="M122 492l121 174h96l121 -174h-89l-80 95l-80 -95h-89zM15 212q0 97 76 161t199 64q124 0 200 -64t76 -161q0 -96 -76.5 -160.5t-199.5 -64.5q-122 0 -198.5 65t-76.5 160zM122 212q0 -57 46.5 -94t121.5 -37q76 0 122.5 37t46.5 94q0 56 -47 93.5t-122 37.5t-121.5 -37 t-46.5 -94z" />
<glyph unicode="&#xf5;" horiz-adv-x="581" d="M125 521q30 94 120 94q17 0 32 -3l47 -11q16 -4 21 -4q17 0 35 26h78q-36 -94 -119 -94q-16 0 -39 5l-46 11q-3 0 -9 1t-11 1q-15 0 -33 -26h-76zM15 212q0 97 76 161t199 64q124 0 200 -64t76 -161q0 -96 -76.5 -160.5t-199.5 -64.5q-122 0 -198.5 65t-76.5 160z M122 212q0 -57 46.5 -94t121.5 -37q76 0 122.5 37t46.5 94q0 56 -47 93.5t-122 37.5t-121.5 -37t-46.5 -94z" />
<glyph unicode="&#xf6;" horiz-adv-x="581" d="M369 526q-26 0 -44.5 13t-18.5 32t18.5 32t44.5 13t45 -13t19 -32t-19 -32t-45 -13zM213 526q-26 0 -45 13t-19 32t19 32t45 13t44.5 -13t18.5 -32t-18.5 -32t-44.5 -13zM15 212q0 97 76 161t199 64q124 0 200 -64t76 -161q0 -96 -76.5 -160.5t-199.5 -64.5 q-122 0 -198.5 65t-76.5 160zM122 212q0 -57 46.5 -94t121.5 -37q76 0 122.5 37t46.5 94q0 56 -47 93.5t-122 37.5t-121.5 -37t-46.5 -94z" />
<glyph unicode="&#xf7;" horiz-adv-x="833" d="M417 398q-31 0 -51.5 19.5t-20.5 47.5t21.5 48t50.5 20q30 0 51 -20t21 -48q0 -27 -21 -47t-51 -20zM104 263v81h625v-81h-625zM345 143q0 28 21.5 47.5t50.5 19.5q30 0 51 -19.5t21 -47.5t-21 -48t-51 -20t-51 20t-21 48z" />
<glyph unicode="&#xf8;" horiz-adv-x="534" d="M-12 -19l84 91q-49 62 -49 140q0 98 69.5 162t174.5 64q63 0 119 -27l30 33h130l-84 -92q49 -61 49 -140q0 -97 -69.5 -161t-174.5 -64q-65 0 -120 26l-30 -32h-129zM143 148l178 191q-18 8 -54 8q-60 0 -99.5 -38.5t-39.5 -96.5q0 -34 15 -64zM214 86q18 -8 53 -8 q61 0 100.5 38t39.5 96q0 37 -16 65z" />
<glyph unicode="&#xf9;" horiz-adv-x="556" d="M284 492l-161 174h125l126 -174h-90zM52 141v284h105v-269q0 -47 24.5 -61.5t96.5 -14.5t96.5 14.5t24.5 61.5v269h105v-284q0 -81 -53.5 -117.5t-173.5 -36.5q-121 0 -173 36.5t-52 117.5z" />
<glyph unicode="&#xfa;" horiz-adv-x="556" d="M182 492l126 174h125l-161 -174h-90zM52 141v284h105v-269q0 -47 24.5 -61.5t96.5 -14.5t96.5 14.5t24.5 61.5v269h105v-284q0 -81 -53.5 -117.5t-173.5 -36.5q-121 0 -173 36.5t-52 117.5z" />
<glyph unicode="&#xfb;" horiz-adv-x="556" d="M109 492l121 174h96l121 -174h-89l-80 95l-80 -95h-89zM52 141v284h105v-269q0 -47 24.5 -61.5t96.5 -14.5t96.5 14.5t24.5 61.5v269h105v-284q0 -81 -53.5 -117.5t-173.5 -36.5q-121 0 -173 36.5t-52 117.5z" />
<glyph unicode="&#xfc;" horiz-adv-x="556" d="M356 526q-26 0 -44.5 13t-18.5 32t18.5 32t44.5 13t45 -13t19 -32t-19 -32t-45 -13zM200 526q-26 0 -45 13t-19 32t19 32t45 13t44.5 -13t18.5 -32t-18.5 -32t-44.5 -13zM52 141v284h105v-269q0 -47 24.5 -61.5t96.5 -14.5t96.5 14.5t24.5 61.5v269h105v-284 q0 -81 -53.5 -117.5t-173.5 -36.5q-121 0 -173 36.5t-52 117.5z" />
<glyph unicode="&#xfd;" horiz-adv-x="447" d="M128 492l126 174h125l-161 -174h-90zM171 0v209l-215 216h138l129 -129l127 129h142l-217 -216v-209h-104z" />
<glyph unicode="&#xfe;" horiz-adv-x="532" d="M52 0v425h105v-71h218q74 0 115 -33.5t41 -92.5q0 -55 -40.5 -92t-108.5 -37h-225v-99h-105zM157 192h218q49 0 49 35q0 34 -46 34h-221v-69z" />
<glyph unicode="&#xff;" horiz-adv-x="447" d="M302 526q-26 0 -44.5 13t-18.5 32t18.5 32t44.5 13t45 -13t19 -32t-19 -32t-45 -13zM146 526q-26 0 -45 13t-19 32t19 32t45 13t44.5 -13t18.5 -32t-18.5 -32t-44.5 -13zM171 0v209l-215 216h138l129 -129l127 129h142l-217 -216v-209h-104z" />
<glyph unicode="&#x152;" horiz-adv-x="986" d="M502 -1v49q-72 -62 -185 -62q-129 0 -214 81t-85 206q0 126 85 207.5t214 81.5q112 0 185 -63v52h465v-97h-357v-114h216v-96h-216v-149h379v-96h-487zM127 273q0 -82 54 -136t136 -54t136 54t54 136q0 83 -54 137.5t-136 54.5t-136 -54.5t-54 -137.5z" />
<glyph unicode="&#x153;" horiz-adv-x="907" d="M456 -1v30q-68 -42 -166 -42q-122 0 -198.5 65t-76.5 160q0 97 77 161t205 64q94 0 159 -41v30h432v-94h-327v-60h214v-93h-214v-87h344v-93h-449zM122 212q0 -57 46.5 -94t121.5 -37q76 0 122.5 37t46.5 94q0 56 -47 93.5t-122 37.5t-121.5 -37t-46.5 -94z" />
<glyph unicode="&#x178;" horiz-adv-x="454" d="M305 638q-26 0 -44.5 13t-18.5 32t18.5 32t44.5 13t45 -13t19 -32t-19 -32t-45 -13zM149 638q-26 0 -45 13t-19 32t19 32t45 13t44.5 -13t18.5 -32t-18.5 -32t-44.5 -13zM173 0v268l-267 282h137l184 -193l183 193h138l-268 -282v-268h-107z" />
<glyph unicode="&#x2c6;" d="M81 492l121 174h96l121 -174h-89l-80 95l-80 -95h-89z" />
<glyph unicode="&#x2dc;" d="M84 521q30 94 120 94q17 0 32 -3l47 -11q16 -4 21 -4q17 0 35 26h78q-36 -94 -119 -94q-16 0 -39 5l-46 11q-3 0 -9 1t-11 1q-15 0 -33 -26h-76z" />
<glyph unicode="&#x2000;" horiz-adv-x="407" />
<glyph unicode="&#x2001;" horiz-adv-x="814" />
<glyph unicode="&#x2002;" horiz-adv-x="407" />
<glyph unicode="&#x2003;" horiz-adv-x="814" />
<glyph unicode="&#x2004;" horiz-adv-x="271" />
<glyph unicode="&#x2005;" horiz-adv-x="203" />
<glyph unicode="&#x2006;" horiz-adv-x="135" />
<glyph unicode="&#x2007;" horiz-adv-x="135" />
<glyph unicode="&#x2008;" horiz-adv-x="101" />
<glyph unicode="&#x2009;" horiz-adv-x="162" />
<glyph unicode="&#x200a;" horiz-adv-x="45" />
<glyph unicode="&#x2010;" horiz-adv-x="257" d="M3 234v72h251v-72h-251z" />
<glyph unicode="&#x2011;" horiz-adv-x="257" d="M3 234v72h251v-72h-251z" />
<glyph unicode="&#x2012;" horiz-adv-x="257" d="M3 234v72h251v-72h-251z" />
<glyph unicode="&#x2013;" d="M0 247v57h500v-57h-500z" />
<glyph unicode="&#x2014;" horiz-adv-x="1000" d="M0 247v57h1000v-57h-1000z" />
<glyph unicode="&#x2018;" horiz-adv-x="333" d="M194 562l45 -34q-58 -54 -61 -57q21 -2 36 -16t15 -36q0 -24 -18 -39.5t-44 -15.5q-27 0 -46.5 18.5t-19.5 51.5q0 50 93 128z" />
<glyph unicode="&#x2019;" horiz-adv-x="333" d="M140 364l-45 34q58 54 61 57q-21 2 -36 16t-15 36q0 24 18 39.5t44 15.5q27 0 46.5 -18.5t19.5 -51.5q0 -50 -93 -128z" />
<glyph unicode="&#x201a;" horiz-adv-x="333" d="M140 -105l-45 34q58 54 61 57q-21 2 -36 16t-15 36q0 24 18 39.5t44 15.5q27 0 46.5 -18.5t19.5 -51.5q0 -50 -93 -128z" />
<glyph unicode="&#x201c;" horiz-adv-x="495" d="M356 562l45 -34q-58 -54 -61 -57q21 -2 36 -16t15 -36q0 -24 -18 -39.5t-44 -15.5q-27 0 -46.5 18.5t-19.5 51.5q0 50 93 128zM194 562l45 -34q-58 -54 -61 -57q21 -2 36 -16t15 -36q0 -24 -18 -39.5t-44 -15.5q-27 0 -46.5 18.5t-19.5 51.5q0 50 93 128z" />
<glyph unicode="&#x201d;" horiz-adv-x="495" d="M302 364l-45 34q58 54 61 57q-21 2 -36 16t-15 36q0 24 18 39.5t44 15.5q27 0 46.5 -18.5t19.5 -51.5q0 -50 -93 -128zM140 364l-45 34q58 54 61 57q-21 2 -36 16t-15 36q0 24 18 39.5t44 15.5q27 0 46.5 -18.5t19.5 -51.5q0 -50 -93 -128z" />
<glyph unicode="&#x201e;" horiz-adv-x="495" d="M257 -71q58 54 61 57q-21 2 -36 16t-15 36q0 24 18 39.5t44 15.5q27 0 46.5 -18.5t19.5 -51.5q0 -50 -93 -128zM140 -105l-45 34q58 54 61 57q-21 2 -36 16t-15 36q0 24 18 39.5t44 15.5q27 0 46.5 -18.5t19.5 -51.5q0 -50 -93 -128z" />
<glyph unicode="&#x2022;" horiz-adv-x="590" d="M294 232q-68 0 -116 43t-48 104t48.5 104t116.5 43t116 -43t48 -104q0 -60 -48.5 -103.5t-116.5 -43.5z" />
<glyph unicode="&#x2026;" horiz-adv-x="1000" d="M773 31q0 20 18 33t43 13t42.5 -13t17.5 -33t-17.5 -32.5t-42.5 -12.5t-43 12.5t-18 32.5zM439 31q0 20 18 33t43 13t42.5 -13t17.5 -33t-17.5 -32.5t-42.5 -12.5t-43 12.5t-18 32.5zM106 31q0 20 18 33t43 13t42.5 -13t17.5 -33t-17.5 -32.5t-42.5 -12.5t-43 12.5 t-18 32.5z" />
<glyph unicode="&#x202f;" horiz-adv-x="162" />
<glyph unicode="&#x2039;" horiz-adv-x="204" d="M3 163v96l198 124v-100l-111 -71l111 -73v-97z" />
<glyph unicode="&#x203a;" horiz-adv-x="204" d="M3 42v97l111 73l-111 71v100l198 -124v-96z" />
<glyph unicode="&#x205f;" horiz-adv-x="203" />
<glyph unicode="&#x20ac;" horiz-adv-x="563" d="M17 175q1 2 7 16t8 17q16 36 18 39h34q-1 6 -1 20q0 10 1 16h-64q0 1 1.5 6t4 10.5t2.5 6.5q12 32 22 49h42q20 82 80.5 133t166.5 51q97 0 162 -41v-95q-69 55 -155 55q-65 0 -105 -28t-54 -75h284q-3 -6 -11.5 -24.5t-11.5 -24.5q-1 -1 -5 -10.5t-5 -12.5h-266 q-1 -7 -1 -16q0 -12 1 -20h249l-13 -31q-3 -6 -8 -20t-8 -21h-205q15 -49 56 -77t105 -28q77 0 153 52v-94q-57 -39 -162 -39q-100 0 -164.5 46.5t-82.5 139.5h-75z" />
<glyph unicode="&#x2122;" horiz-adv-x="833" d="M381 437v263h91l66 -149l63 149h91v-263h-75v121l-52 -121h-52l-57 126v-126h-75zM195 437v204h-86v59h250v-59h-84v-204h-80z" />
<glyph unicode="&#x25fc;" horiz-adv-x="425" d="M0 425h425v-425h-425v425z" />
<glyph unicode="&#xfb01;" horiz-adv-x="681" d="M522 0v425h106v-425h-106zM51 0v425h425v-93h-320v-61h207v-92h-207v-179h-105z" />
<glyph unicode="&#xfb02;" horiz-adv-x="919" d="M521 0v425h105v-333h310v-92h-415zM51 0v425h425v-93h-320v-61h207v-92h-207v-179h-105z" />
</font>
</defs>
</svg>
